<?xml version="1.0" standalone="no"?>
<!DOCTYPE svg PUBLIC "-//W3C//DTD SVG 20010904//EN"
 "http://www.w3.org/TR/2001/REC-SVG-20010904/DTD/svg10.dtd">
<svg version="1.0" xmlns="http://www.w3.org/2000/svg"
 width="115.000000pt" height="182.000000pt" viewBox="0 0 115.000000 182.000000"
 preserveAspectRatio="xMidYMid meet">
<metadata>
Created by potrace 1.15, written by Peter Selinger 2001-2017
</metadata>
<g transform="translate(0.000000,182.000000) scale(0.100000,-0.100000)"
fill="#000000" stroke="none">
<path d="M91 1497 l4 -224 39 -58 c77 -116 213 -240 419 -382 94 -66 211 -157
253 -198 19 -19 104 -126 104 -131 0 -3 -19 8 -43 24 -23 16 -82 51 -132 77
-296 159 -421 256 -603 469 -18 21 -36 35 -39 32 -3 -3 -1 -77 4 -163 11 -178
21 -209 96 -290 61 -67 143 -120 322 -213 88 -45 188 -102 222 -126 95 -67
132 -147 114 -242 -5 -23 -5 -42 0 -42 21 0 138 124 154 162 24 62 23 134 -4
186 l-22 44 24 52 c33 68 50 157 42 209 -15 91 -73 148 -314 309 -187 125
-336 241 -381 298 -58 73 -34 79 60 17 126 -85 361 -217 515 -291 17 -8 49
-24 73 -36 l42 -20 0 380 0 380 -476 0 -476 0 3 -223z"/>
</g>
</svg>
